<svg width="167" height="87" viewBox="0 0 167 87" fill="none" xmlns="http://www.w3.org/2000/svg">
<path fill-rule="evenodd" clip-rule="evenodd" d="M160 9C163.866 9 167 12.134 167 16C167 19.866 163.866 23 160 23H120C123.866 23 127 26.134 127 30C127 33.866 123.866 37 120 37H142C145.866 37 149 40.134 149 44C149 47.866 145.866 51 142 51H131.826C126.952 51 123 54.134 123 58C123 60.5773 125 62.9107 129 65C132.866 65 136 68.134 136 72C136 75.866 132.866 79 129 79H46C42.134 79 39 75.866 39 72C39 68.134 42.134 65 46 65H7C3.13401 65 0 61.866 0 58C0 54.134 3.13401 51 7 51H47C50.866 51 54 47.866 54 44C54 40.134 50.866 37 47 37H22C18.134 37 15 33.866 15 30C15 26.134 18.134 23 22 23H62C58.134 23 55 19.866 55 16C55 12.134 58.134 9 62 9H160ZM160 37C163.866 37 167 40.134 167 44C167 47.866 163.866 51 160 51C156.134 51 153 47.866 153 44C153 40.134 156.134 37 160 37Z" fill="#E8F0FE"/>
<path fill-rule="evenodd" clip-rule="evenodd" d="M50.4941 85C38.3439 85 28.4941 75.3741 28.4941 63.5C28.4941 51.6259 38.3439 42 50.4941 42C51.0108 42 51.5233 42.0174 52.0311 42.0517C51.6783 40.0878 51.4941 38.0654 51.4941 36C51.4941 17.2223 66.7165 2 85.4941 2C100.485 2 113.21 11.702 117.733 25.1695C118.804 25.0575 119.892 25 120.994 25C137.839 25 151.494 38.4315 151.494 55C151.494 70.7406 139.169 83.7273 123.494 84.9782V85H67.002M62.4901 85H55.5255H62.4901Z" fill="white"/>
<path d="M50.4941 86.25C51.1845 86.25 51.7441 85.6904 51.7441 85C51.7441 84.3096 51.1845 83.75 50.4941 83.75V86.25ZM52.0311 42.0517L51.947 43.2988L53.5445 43.4066L53.2614 41.8306L52.0311 42.0517ZM117.733 25.1695L116.548 25.5674L116.867 26.5169L117.863 26.4127L117.733 25.1695ZM123.494 84.9782L123.395 83.7321L122.244 83.824V84.9782H123.494ZM123.494 85V86.25H124.744V85H123.494ZM67.002 83.75C66.3116 83.75 65.752 84.3096 65.752 85C65.752 85.6904 66.3116 86.25 67.002 86.25V83.75ZM50.4941 83.75C39.007 83.75 29.7441 74.6568 29.7441 63.5H27.2441C27.2441 76.0914 37.6808 86.25 50.4941 86.25V83.75ZM29.7441 63.5C29.7441 52.3432 39.007 43.25 50.4941 43.25V40.75C37.6808 40.75 27.2441 50.9086 27.2441 63.5H29.7441ZM50.4941 43.25C50.9827 43.25 51.4672 43.2665 51.947 43.2988L52.1152 40.8045C51.5795 40.7684 51.0389 40.75 50.4941 40.75V43.25ZM53.2614 41.8306C52.9217 39.9394 52.7441 37.991 52.7441 36H50.2441C50.2441 38.1399 50.435 40.2362 50.8008 42.2727L53.2614 41.8306ZM52.7441 36C52.7441 17.9127 67.4068 3.25 85.4941 3.25V0.75C66.0261 0.75 50.2441 16.532 50.2441 36H52.7441ZM85.4941 3.25C99.9321 3.25 112.191 12.5936 116.548 25.5674L118.918 24.7716C114.229 10.8104 101.038 0.75 85.4941 0.75V3.25ZM117.863 26.4127C118.891 26.3052 119.936 26.25 120.994 26.25V23.75C119.849 23.75 118.717 23.8097 117.603 23.9263L117.863 26.4127ZM120.994 26.25C137.168 26.25 150.244 39.1412 150.244 55H152.744C152.744 37.7217 138.51 23.75 120.994 23.75V26.25ZM150.244 55C150.244 70.0705 138.439 82.5317 123.395 83.7321L123.594 86.2242C139.9 84.923 152.744 71.4108 152.744 55H150.244ZM122.244 84.9782V85H124.744V84.9782H122.244ZM123.494 83.75H67.002V86.25H123.494V83.75ZM62.4901 83.75H55.5255V86.25H62.4901V83.75ZM55.5255 86.25H62.4901V83.75H55.5255V86.25Z" fill="#2E76DB"/>
<path fill-rule="evenodd" clip-rule="evenodd" d="M75.1065 9.34263C75.1065 41.5657 104.127 68.118 141.494 71.7029C136.811 77.4611 129.58 81.3675 121.341 81.9813V82H54.2372C46.0955 82 32.4941 78.5697 32.4941 63.5483C32.4941 48.527 43.0683 45.0967 54.2372 45.0967C54.7121 45.0967 55.1833 45.1116 55.65 45.141C55.3257 43.4556 55.2687 41.7184 55.1564 39.9474C54.3979 27.9842 59.6171 12.907 75.1245 8C75.1121 8.44733 75.1065 8.89443 75.1065 9.34263Z" fill="#E8F0FE"/>
<path d="M95.4938 14C102.003 15.7226 107.142 20.8129 108.934 27.2932" stroke="#75A4FE" stroke-width="2.5" stroke-linecap="round"/>
<path d="M66.4941 46.5C66.4941 50.0899 69.6281 53 73.4941 53C77.3601 53 80.4941 50.0899 80.4941 46.5" stroke="#2E76DB" stroke-width="2.5" stroke-linecap="round"/>
<path d="M95.4941 46.5C95.4941 50.0899 98.6281 53 102.494 53C106.36 53 109.494 50.0899 109.494 46.5" stroke="#2E76DB" stroke-width="2.5" stroke-linecap="round"/>
<path d="M80.4941 65H94.9941" stroke="#2E76DB" stroke-width="2.5" stroke-linecap="round"/>
<path opacity="0.2" fill-rule="evenodd" clip-rule="evenodd" d="M27.65 5.29199H15.704V7.66799H24.152L15 18.756V21H27.87V18.624H18.498L27.65 7.38199V5.29199ZM41.062 20.576H32.374V22.304H38.518L31.862 30.368V32H41.222V30.272H34.406L41.062 22.096V20.576Z" fill="#000DD3"/>
</svg>
